<svg width="2880" height="520" viewBox="0 0 2880 520" version="1.1" xmlns="http://www.w3.org/2000/svg" xmlns:xlink="http://www.w3.org/1999/xlink">
<title>1-1</title>
<desc>Created using Figma</desc>
<g id="Canvas" transform="translate(-2662 -1440)">
<g id="1-1">
<use xlink:href="#path0_fill" transform="translate(2662 1440)" fill="url(#paint0_linear)"/>
<use xlink:href="#path0_fill" transform="translate(2662 1440)" fill="#8926AD"/>
</g>
</g>
<defs>
<linearGradient id="paint0_linear" x1="0" y1="0" x2="1" y2="0" gradientUnits="userSpaceOnUse" gradientTransform="matrix(8.81746e-14 520 -1440 3.18408e-14 2880 -1.54972e-05)">
<stop offset="0" stop-color="#890BB8"/>
<stop offset="1" stop-color="#620087" stop-opacity="0"/>
</linearGradient>
<path id="path0_fill" d="M 0 94L 235.673 94L 235.673 28L 273.62 0L 273.62 164L 329.542 164L 329.542 232L 419.417 334L 419.417 212L 461.359 212L 461.359 292L 499.307 292L 499.307 256L 533.259 256L 533.259 324L 619.14 324L 619.14 292L 655.09 292L 655.09 370L 705.021 370L 705.021 272L 744.965 256L 744.965 292L 784.91 292L 784.91 324L 908.738 324L 960.666 272L 996.616 272L 996.616 232L 1062.52 232L 1062.52 324L 1186.35 324L 1212.32 282L 1212.32 196L 1260.25 196L 1260.25 256L 1278.22 256L 1278.22 132L 1324.16 132L 1324.16 212L 1440 256L 1440 386L 1484.44 386L 1484.44 353.5L 1592.54 353.5L 1592.54 386L 1629.24 386L 1629.24 320L 1683.66 292L 1683.66 232L 1769.54 232L 1769.54 334L 1859.42 334L 1859.42 386L 1901.36 386L 1901.36 292L 1939.31 292L 1939.31 256L 1973.26 256L 1973.26 324L 2059.14 324L 2059.14 272L 2095.09 292L 2095.09 370L 2145.02 370L 2145.02 272L 2184.97 272L 2184.97 292L 2258.36 292L 2323.77 324L 2348.74 324L 2348.74 272L 2436.62 272L 2436.62 308.5L 2511.51 308.5L 2511.51 283.5L 2553.45 248L 2666.8 248L 2666.8 320L 2700.25 320L 2700.25 380L 2739.69 380L 2739.69 256L 2805.1 256L 2805.1 292L 2880 336L 2880 520L 0 520L 0 94Z"/>
</defs>
</svg>
