<svg width="2880" height="530" viewBox="0 0 2880 530" version="1.1" xmlns="http://www.w3.org/2000/svg" xmlns:xlink="http://www.w3.org/1999/xlink">
<title>1-2</title>
<desc>Created using Figma</desc>
<g id="Canvas" transform="translate(-2664 -1661)">
<g id="1-2">
<use xlink:href="#path0_fill" transform="translate(2664 1661)" fill="url(#paint0_linear)"/>
</g>
</g>
<defs>
<linearGradient id="paint0_linear" x1="0" y1="0" x2="1" y2="0" gradientUnits="userSpaceOnUse" gradientTransform="matrix(8.81747e-14 448 -1440 2.74321e-14 2880 -6.59896e-06)">
<stop offset="0" stop-color="#F2994A"/>
<stop offset="1" stop-color="#9E2B99"/>
</linearGradient>
<path id="path0_fill" d="M 0 236.444L 67.5557 236.444L 67.5557 295.111L 87.1111 295.111L 87.1111 222.222L 113.778 222.222L 113.778 197.333L 122.667 197.333L 131.556 110.222L 140.444 197.333L 149.333 197.333L 149.333 250.667L 206.222 250.667L 206.222 295.111L 247.111 295.111L 247.111 311.111L 264.889 311.111L 264.889 295.111L 282.667 295.111L 282.667 236.444L 300.444 236.444L 300.444 213.333L 336 213.333L 336 311.111L 366.222 311.111L 366.222 273.778L 375.111 273.778L 375.111 97.7778L 387.556 97.7778L 387.556 72.8889L 396.444 72.8889L 396.444 44.4445L 405.333 44.4445L 405.333 0L 430.222 0L 430.222 44.4445L 439.111 44.4445L 439.111 72.8889L 448 72.8889L 448 97.7778L 456.889 97.7778L 456.889 144L 476.444 144L 476.444 295.111L 515.556 295.111L 515.556 332.444L 547.556 332.444L 547.556 304L 561.778 304L 592 273.778L 622.222 304L 632.889 304L 632.889 353.778L 668.444 353.778L 668.444 273.778L 686.222 273.778L 686.222 257.778L 736 257.778L 736 273.778L 768 273.778L 768 282.667L 752 282.667L 752 320L 776.889 320L 776.889 332.444L 819.556 332.444L 819.556 353.778L 840.889 353.778L 840.889 332.444C 870.519 332.444 929.778 317.511 929.778 257.778L 954.667 257.778L 954.667 282.667L 963.556 282.667L 963.556 353.778L 984.889 332.444L 984.889 304L 1011.56 304L 1011.56 320L 1025.78 320L 1025.78 371.556L 1054.22 343.111L 1082.67 371.556L 1107.56 371.556L 1125.33 353.778L 1143.11 371.556L 1155.56 371.556L 1173.33 353.778L 1191.11 371.556L 1201.78 371.556L 1201.78 304L 1217.78 304L 1217.78 282.667L 1226.67 282.667L 1235.56 236.444L 1244.44 282.667L 1255.11 282.667L 1255.11 304L 1267.56 304L 1267.56 343.111L 1283.56 343.111L 1283.56 250.667L 1329.78 250.667L 1329.78 362.667L 1338.67 362.667L 1338.67 320L 1345.78 320L 1345.78 309.333L 1354.67 309.333L 1354.67 343.111L 1365.33 343.111L 1365.33 325.333L 1390.22 325.333L 1390.22 298.667L 1409.78 298.667L 1409.78 284.444L 1425.78 284.444L 1425.78 304L 1440 304L 1440 236.444L 1507.56 236.444L 1507.56 295.111L 1527.11 295.111L 1527.11 222.222L 1553.78 222.222L 1553.78 197.333L 1562.67 197.333L 1562.67 207L 1580.44 197.333L 1589.33 197.333L 1589.33 250.667L 1646.22 250.667L 1646.22 295.111L 1687.11 295.111L 1687.11 311.111L 1704.89 311.111L 1704.89 295.111L 1722.67 295.111L 1722.67 236.444L 1740.44 236.444L 1740.44 213.333L 1776 213.333L 1776 311.111L 1806.22 311.111L 1806.22 273.778L 1815.11 273.778L 1815.11 236.444L 1896.89 188.5L 1916.44 188.5L 1916.44 295.111L 1955.56 295.111L 1955.56 332.444L 1987.56 332.444L 1987.56 304L 2001.78 304L 2032 273.778L 2062.22 304L 2072.89 304L 2072.89 353.778L 2108.44 353.778L 2108.44 273.778L 2126.22 273.778L 2126.22 257.778L 2176 257.778L 2176 273.778L 2208 273.778L 2208 282.667L 2192 282.667L 2192 320L 2216.89 320L 2216.89 332.444L 2259.56 332.444L 2259.56 353.778L 2280.89 353.778L 2280.89 304L 2311.5 304L 2311.5 353.778L 2341 385L 2400.5 385L 2400.5 320L 2413.5 320L 2413.5 304L 2451.56 304L 2451.56 320L 2465.78 320L 2465.78 371.555L 2491.5 371.555L 2491.5 343.111L 2544.5 343.111L 2544.5 371.555L 2583.11 371.555L 2583.11 353.778L 2613.33 353.778L 2613.33 371.555L 2641.78 371.555L 2641.78 304L 2657.78 304L 2657.78 282.667L 2695.11 282.667L 2695.11 304L 2707.56 304L 2707.56 343.111L 2723.56 343.111L 2723.56 250.667L 2769.78 250.667L 2769.78 362.667L 2778.67 362.667L 2778.67 320L 2785.78 320L 2785.78 309.333L 2794.67 309.333L 2794.67 343.111L 2805.33 343.111L 2805.33 325.333L 2830.22 325.333L 2830.22 298.667L 2849.78 298.667L 2849.78 284.444L 2865.78 284.444L 2865.78 304L 2880 304L 2880 530L 0 530L 0 236.444Z"/>
</defs>
</svg>
