<svg width="2880" height="383" viewBox="0 0 2880 383" version="1.1" xmlns="http://www.w3.org/2000/svg" xmlns:xlink="http://www.w3.org/1999/xlink">
<title>1-3</title>
<desc>Created using Figma</desc>
<g id="Canvas" transform="translate(-2664 -1997)">
<g id="1-3">
<use xlink:href="#path0_fill" transform="translate(2664 1997)" fill="#ECEEF8"/>
</g>
</g>
<defs>
<path id="path0_fill" d="M 56.4197 26.1807C 66.3805 16.0509 75.6749 6.59911 83.8835 0C 111.845 55.9223 203.318 175.789 257.642 209.875C 299.185 199.223 349.515 161.054 369.487 143.301C 395.451 178.807 455.767 254.879 489.32 275.118C 502.103 263.401 539.917 239.168 557.226 228.516L 619.14 275.118L 661.082 259.14L 687.046 275.118L 736.976 243.162L 782.913 304.411L 880.777 209.875L 944.688 275.118L 962.663 259.14L 992.621 287.101C 1034.16 264.732 1127.1 181.914 1168.38 143.301C 1187.02 165.936 1256.36 233.576 1286.71 259.14C 1348.63 225.853 1412.04 148.627 1440 74.0638C 1459.35 63.8801 1478.91 43.9832 1496.42 26.1802C 1506.38 16.0507 1515.68 6.59899 1523.88 0C 1551.84 55.9223 1643.32 175.789 1697.64 209.875C 1739.18 199.223 1789.51 161.054 1809.49 143.301C 1835.45 178.807 1895.77 254.879 1929.32 275.118C 1942.1 263.401 1979.92 239.168 1997.23 228.516L 2059.14 275.118L 2101.08 259.14L 2127.05 275.118L 2176.98 243.162L 2222.91 304.411L 2320.78 209.875L 2384.69 275.118L 2402.66 259.14L 2432.62 287.101C 2474.16 264.732 2567.1 181.914 2608.38 143.301C 2627.02 165.936 2696.36 233.576 2726.71 259.14C 2788.63 225.853 2852.04 148.627 2880 74.0638L 2880 382.968L 0 382.968L 0 74.0638C 19.3486 63.8803 38.9135 43.9837 56.4197 26.1807Z"/>
</defs>
</svg>
