<svg width="437" height="437" viewBox="0 0 437 437" version="1.1" xmlns="http://www.w3.org/2000/svg" xmlns:xlink="http://www.w3.org/1999/xlink">
<title>img3</title>
<desc>Created using Figma</desc>
<g id="Canvas" transform="translate(-7024 -1750)">
<g id="img3">
<g id="Rectangle 2">
<use xlink:href="#path0_fill" transform="translate(7024 1750)" fill="#ECEEF8"/>
</g>
<g id="Ellipse">
<use xlink:href="#path1_fill" transform="translate(7083 1809)" fill="url(#paint1_linear)"/>
</g>
<g id="Group" filter="url(#filter0_d)">
<g id="Subtract">
<use xlink:href="#path2_fill" transform="translate(7231 1893.52)" fill="url(#paint2_linear)"/>
</g>
<g id="Subtract">
<use xlink:href="#path3_fill" transform="matrix(0.965926 -0.258819 0.258819 0.965926 7160 1905.89)" fill="url(#paint3_linear)"/>
</g>
<g id="Ellipse 2">
<use xlink:href="#path4_fill" transform="translate(7290 1851)" fill="url(#paint4_linear)"/>
</g>
<g id="Ellipse 2.3">
<use xlink:href="#path4_fill" transform="translate(7202 2077)" fill="url(#paint5_linear)"/>
</g>
<g id="Ellipse 2.4">
<use xlink:href="#path4_fill" transform="translate(7322 2021)" fill="url(#paint6_linear)"/>
</g>
<g id="Ellipse 2.1">
<use xlink:href="#path5_fill" transform="translate(7152 1999)" fill="url(#paint7_linear)"/>
</g>
<g id="Ellipse 2.2">
<use xlink:href="#path5_fill" transform="translate(7330 1927)" fill="url(#paint8_linear)"/>
</g>
</g>
</g>
</g>
<defs>
<filter id="filter0_d" filterUnits="userSpaceOnUse" x="7136" y="1851" width="226" height="290" color-interpolation-filters="sRGB">
<feFlood flood-opacity="0" result="BackgroundImageFix"/>
<feColorMatrix in="SourceAlpha" type="matrix" values="0 0 0 0 0 0 0 0 0 0 0 0 0 0 0 0 0 0 255 0"/>
<feOffset dx="0" dy="24"/>
<feGaussianBlur stdDeviation="8"/>
<feColorMatrix type="matrix" values="0 0 0 0 0 0 0 0 0 0 0 0 0 0 0 0 0 0 0.08 0"/>
<feBlend mode="normal" in2="BackgroundImageFix" result="effect1_dropShadow"/>
<feBlend mode="normal" in="SourceGraphic" in2="effect1_dropShadow" result="shape"/>
</filter>
<linearGradient id="paint1_linear" x1="0" y1="0" x2="1" y2="0" gradientUnits="userSpaceOnUse" gradientTransform="matrix(1.95943e-14 320 -320 1.95943e-14 320 -1.95943e-14)">
<stop offset="0" stop-color="#CCCFDE"/>
<stop offset="1" stop-color="#ECEEF8"/>
</linearGradient>
<linearGradient id="paint2_linear" x1="0" y1="0" x2="1" y2="0" gradientUnits="userSpaceOnUse" gradientTransform="matrix(4.3475e-15 149 -71 9.12362e-15 71 -9.12362e-15)">
<stop offset="0" stop-color="#EB5757"/>
<stop offset="1" stop-color="#9E2B99"/>
</linearGradient>
<linearGradient id="paint3_linear" x1="0" y1="0" x2="1" y2="0" gradientUnits="userSpaceOnUse" gradientTransform="matrix(7.24553e-15 149 -65.262 6.20337e-15 65.262 3.05605e-27)">
<stop offset="0" stop-color="#EB5757"/>
<stop offset="1" stop-color="#9E2B99"/>
</linearGradient>
<linearGradient id="paint4_linear" x1="0" y1="0" x2="1" y2="0" gradientUnits="userSpaceOnUse" gradientTransform="matrix(1.46958e-15 24 -24 1.46958e-15 24 -1.46958e-15)">
<stop offset="0" stop-color="#EB5757"/>
<stop offset="1" stop-color="#F2994A"/>
</linearGradient>
<linearGradient id="paint5_linear" x1="0" y1="0" x2="1" y2="0" gradientUnits="userSpaceOnUse" gradientTransform="matrix(1.46958e-15 24 -24 1.46958e-15 24 -1.46958e-15)">
<stop offset="0" stop-color="#EB5757"/>
<stop offset="1" stop-color="#F2994A"/>
</linearGradient>
<linearGradient id="paint6_linear" x1="0" y1="0" x2="1" y2="0" gradientUnits="userSpaceOnUse" gradientTransform="matrix(1.46958e-15 24 -24 1.46958e-15 24 -1.46958e-15)">
<stop offset="0" stop-color="#EB5757"/>
<stop offset="1" stop-color="#F2994A"/>
</linearGradient>
<linearGradient id="paint7_linear" x1="0" y1="0" x2="1" y2="0" gradientUnits="userSpaceOnUse" gradientTransform="matrix(9.79717e-16 16 -16 9.79717e-16 16 -9.79717e-16)">
<stop offset="0" stop-color="#EB5757"/>
<stop offset="1" stop-color="#F2994A"/>
</linearGradient>
<linearGradient id="paint8_linear" x1="0" y1="0" x2="1" y2="0" gradientUnits="userSpaceOnUse" gradientTransform="matrix(9.79717e-16 16 -16 9.79717e-16 16 -9.79717e-16)">
<stop offset="0" stop-color="#EB5757"/>
<stop offset="1" stop-color="#F2994A"/>
</linearGradient>
<path id="path0_fill" d="M 0 0L 437 0L 437 437L 0 437L 0 0Z"/>
<path id="path1_fill" d="M 320 160C 320 248.366 248.366 320 160 320C 71.6344 320 0 248.366 0 160C 0 71.6344 71.6344 0 160 0C 248.366 0 320 71.6344 320 160Z"/>
<path id="path2_fill" fill-rule="evenodd" d="M 0 139.008C 5.11621 139.218 9.2002 143.432 9.2002 148.6C 9.2002 148.734 9.19727 148.867 9.19189 149L 61.0083 149L 61.002 148.792L 61 148.6C 61 143.298 65.2979 139 70.6001 139C 70.7339 139 70.8672 139.003 71 139.008L 71 9.19177C 70.8672 9.19727 70.7339 9.19995 70.6001 9.19995C 65.4316 9.19995 61.2178 5.11646 61.0083 0L 9.19189 0C 8.98779 4.98389 4.98389 8.98755 0 9.19177L 0 139.008ZM 17 21L 54 21L 54 128L 17 128L 17 21ZM 13 17L 17 17L 54 17L 58 17L 58 21L 58 128L 58 132L 54 132L 17 132L 13 132L 13 128L 13 21L 13 17Z"/>
<path id="path3_fill" fill-rule="evenodd" d="M 65.262 7.58009C 62.7958 5.92684 61.1384 3.16045 61.0086 0L 9.19169 5.55594e-05C 8.98763 4.98376 4.98347 8.98726 0 9.19172L 0.000144823 139.008C 5.11638 139.218 9.20038 143.432 9.20027 148.6C 9.20026 148.734 9.19743 148.867 9.19218 149L 27.3686 149L 31.9238 132L 17.0002 132L 13.0002 132L 13.0003 128L 13.0001 20.9999L 13.0002 17L 17.0002 17L 54.0002 17L 58.0003 17L 58.0002 20.9999L 58.0002 34.6813L 65.262 7.58009ZM 54.0002 49.6096L 54.0001 20.9999L 17.0001 20.9999L 17.0003 128L 32.9955 128L 54.0002 49.6096Z"/>
<path id="path4_fill" d="M 24 12C 24 18.6274 18.6274 24 12 24C 5.37258 24 0 18.6274 0 12C 0 5.37258 5.37258 0 12 0C 18.6274 0 24 5.37258 24 12Z"/>
<path id="path5_fill" d="M 16 8C 16 12.4183 12.4183 16 8 16C 3.58172 16 0 12.4183 0 8C 0 3.58172 3.58172 0 8 0C 12.4183 0 16 3.58172 16 8Z"/>
</defs>
</svg>
