<svg width="2884" height="261" viewBox="0 0 2884 261" version="1.1" xmlns="http://www.w3.org/2000/svg" xmlns:xlink="http://www.w3.org/1999/xlink">
<title>1-3-2</title>
<desc>Created using Figma</desc>
<g id="Canvas" transform="translate(-2660 -2530)">
<g id="1-3-2">
<use xlink:href="#path0_fill" transform="translate(2660 2530)" fill="#ECEEF8"/>
</g>
</g>
<defs>
<path id="path0_fill" d="M 56.498 9.77588C 66.4727 5.99341 75.78 2.46411 84 0C 112 20.8813 203.6 65.6396 258 78.3672C 299.6 74.3899 350 60.1375 370 53.5085C 396 66.7666 456.4 95.1719 490 102.729C 502.8 98.3538 540.667 89.3052 558 85.3276L 620 102.729L 662 96.7627L 688 102.729L 738 90.7966L 784 113.667L 882 78.3672L 946 102.729L 964 96.7627L 994 107.203C 1035.6 98.8508 1128.67 67.9265 1170 53.5085C 1188.67 61.9604 1258.1 87.217 1288.5 96.7627C 1350.5 84.3333 1414 55.4971 1442 27.6553C 1461.38 23.8528 1480.97 16.4233 1498.5 9.77563C 1508.47 5.99341 1517.78 2.46411 1526 0C 1554 20.8813 1645.6 65.6396 1700 78.3672C 1741.6 74.3899 1792 60.1375 1812 53.5085C 1838 66.7666 1898.4 95.1719 1932 102.729C 1944.8 98.3538 1982.67 89.3052 2000 85.3276L 2062 102.729L 2104 96.7627L 2130 102.729L 2180 90.7966L 2226 113.667L 2324 78.3672L 2388 102.729L 2406 96.7627L 2436 107.203C 2477.6 98.8508 2570.67 67.9265 2612 53.5085C 2630.67 61.9604 2700.1 87.217 2730.5 96.7627C 2792.5 84.3333 2856 55.4971 2884 27.6553L 2884 260.5L 0 260.5L 0 27.6553C 19.3755 23.8528 38.9675 16.4233 56.498 9.77588Z"/>
</defs>
</svg>
