<svg width="185" height="34" viewBox="0 0 185 34" version="1.1" xmlns="http://www.w3.org/2000/svg" xmlns:xlink="http://www.w3.org/1999/xlink">
<title>Title</title>
<desc>Created using Figma</desc>
<g id="Canvas" transform="translate(-6689 -3373)">
<g id="Title">
<use xlink:href="#path0_fill" transform="translate(6689 3373)" fill="#ECEEF8"/>
<use xlink:href="#path1_fill" transform="translate(6689 3373)" fill="#ECEEF8"/>
<use xlink:href="#path2_fill" transform="translate(6689 3373)" fill="#ECEEF8"/>
<use xlink:href="#path3_fill" transform="translate(6689 3373)" fill="#ECEEF8"/>
<use xlink:href="#path4_fill" transform="translate(6689 3373)" fill="#ECEEF8"/>
<use xlink:href="#path5_fill" transform="translate(6689 3373)" fill="#ECEEF8"/>
<use xlink:href="#path6_fill" transform="translate(6689 3373)" fill="#ECEEF8"/>
<use xlink:href="#path7_fill" transform="translate(6689 3373)" fill="#ECEEF8"/>
<use xlink:href="#path8_fill" transform="translate(6689 3373)" fill="#ECEEF8"/>
<use xlink:href="#path9_fill" transform="translate(6689 3373)" fill="#ECEEF8"/>
<use xlink:href="#path10_fill" transform="translate(6689 3373)" fill="#ECEEF8"/>
</g>
</g>
<defs>
<path id="path0_fill" d="M 15.4529 17.8839C 16.16 18.041 16.5136 18.4044 16.5136 18.974C 15.7873 20.3293 14.8986 21.4292 13.8474 22.2738C 12.7962 23.1184 11.8023 23.6782 10.8657 23.9532C 9.9292 24.2282 8.964 24.3657 7.97012 24.3657C 5.71479 24.3657 3.8226 23.4818 2.29356 21.714C 0.76452 19.9463 0 17.3732 0 13.9948C 0 10.2236 0.946093 7.01213 2.83828 4.36049C 3.77482 3.08377 4.96938 2.07221 6.42197 1.32582C 7.89367 0.559792 9.58517 0.176776 11.4965 0.176776C 13.4269 0.176776 14.889 0.707105 15.8829 1.76776C 16.8959 2.80878 17.4024 4.04622 17.4024 5.48007C 17.4024 6.89428 17.0201 8.05315 16.2556 8.95667C 15.4911 9.84056 14.4972 10.2825 13.274 10.2825C 12.8535 10.2825 12.3661 10.2039 11.8118 10.0468C 12.2132 9.53611 12.5668 8.80936 12.8726 7.86655C 13.1784 6.92374 13.3313 6.03004 13.3313 5.18544C 13.3313 4.34084 13.1402 3.65338 12.7579 3.12305C 12.3757 2.59272 11.7736 2.32756 10.9517 2.32756C 9.69029 2.32756 8.55307 2.92663 7.54008 4.12478C 6.52709 5.32293 5.77212 6.79607 5.27519 8.54419C 4.77825 10.2923 4.52978 12.0994 4.52978 13.9653C 4.52978 16.4795 5.00761 18.3847 5.96325 19.6811C 6.9189 20.9775 8.14214 21.6257 9.63295 21.6257C 10.5695 21.6257 11.5443 21.3016 12.5572 20.6534C 13.5702 20.0052 14.5354 19.082 15.4529 17.8839Z"/>
<path id="path1_fill" d="M 24.6134 14.3484C 25.3015 11.7949 26.1234 9.91912 27.079 8.72097C 28.0538 7.50318 28.9521 6.89428 29.7739 6.89428C 30.6149 6.89428 31.2456 7.21837 31.6661 7.86655C 32.0866 8.49509 32.2969 9.32005 32.2969 10.3414C 32.2969 11.3432 32.0006 12.2663 31.4081 13.1109C 30.8347 13.9555 30.0415 14.3778 29.0285 14.3778C 28.761 14.3778 28.4456 14.2992 28.0824 14.1421C 28.6749 13.3761 28.9712 12.4529 28.9712 11.3726C 28.9712 10.7441 28.7227 10.4298 28.2258 10.4298C 27.8626 10.4298 27.4708 10.695 27.0503 11.2253C 26.6299 11.736 26.2285 12.4529 25.8462 13.3761C 25.464 14.2796 25.139 15.4483 24.8715 16.8822C 24.623 18.2964 24.4988 19.8088 24.4988 21.4194C 24.4988 21.6158 24.5465 22.4506 24.6421 23.9237C 24.0305 23.963 23.6387 23.9827 23.4667 23.9827C 22.3772 23.9827 21.5936 23.7863 21.1158 23.3934C 20.6379 23.0006 20.399 22.3524 20.399 21.4489C 20.399 21.056 20.5997 19.5436 21.0011 16.9116C 21.4025 14.2796 21.6031 12.1878 21.6031 10.636C 21.6031 9.0647 21.4407 7.62103 21.1158 6.30503C 22.511 6.75679 23.4858 7.40497 24.04 8.24957C 24.5943 9.07452 24.8715 10.0468 24.8715 11.1664C 24.8715 12.2663 24.7855 13.327 24.6134 14.3484Z"/>
<path id="path2_fill" d="M 46.1698 8.95667C 46.1698 9.64414 45.8831 10.5771 45.3097 11.7556C 44.7363 12.9145 44.0387 14.201 43.2168 15.6153C 42.3949 17.0295 41.5731 18.5419 40.7512 20.1525C 39.9294 21.7435 39.2317 23.5407 38.6584 25.5442C 38.085 27.5673 37.7983 29.5413 37.7983 31.4662C 37.7983 32.3501 37.8652 33.1947 37.999 34C 36.4508 33.7054 35.3996 33.2634 34.8453 32.6742C 34.291 32.1046 34.0139 31.4269 34.0139 30.6412C 34.0139 29.5609 34.7784 27.4298 36.3075 24.2478C 36.0208 23.03 35.6672 21.1248 35.2467 18.5321C 34.8262 15.9197 34.3962 13.6511 33.9566 11.7262C 33.5361 9.80127 33.0487 8.36742 32.4944 7.42461C 33.5456 6.91392 34.3866 6.65858 35.0173 6.65858C 35.6481 6.65858 36.1259 6.80589 36.4508 7.10052C 36.7757 7.39515 37.0433 7.9844 37.2535 8.86828C 37.4829 9.73252 37.6454 10.4495 37.7409 11.0191C 38.0085 12.9047 38.1423 13.9555 38.1423 14.1716C 38.1423 14.3876 38.2188 15.2715 38.3717 16.8232C 38.5246 18.3553 38.6392 19.3668 38.7157 19.8579C 42.1178 13.0815 43.8189 8.55402 43.8189 6.27556C 45.3861 7.10052 46.1698 7.99422 46.1698 8.95667Z"/>
<path id="path3_fill" d="M 52.8963 12.9931C 53.6991 11.3039 54.7025 9.98787 55.9066 9.04506C 57.1299 8.10225 58.334 7.63085 59.519 7.63085C 60.704 7.63085 61.6788 8.12189 62.4433 9.10399C 63.2269 10.0664 63.6187 11.4708 63.6187 13.3172C 63.6187 16.2634 62.8351 18.7678 61.2678 20.8302C 59.7006 22.8925 57.8179 23.9237 55.6199 23.9237C 54.8363 23.9237 54.0431 23.7666 53.2404 23.4523C 55.1134 23.0006 56.6043 21.7533 57.7128 19.7106C 58.8214 17.6678 59.3756 15.6349 59.3756 13.6118C 59.3756 12.669 59.2036 11.9029 58.8596 11.3137C 58.5347 10.7244 58.0664 10.4298 57.4548 10.4298C 56.2889 10.4298 55.2568 11.1566 54.3585 12.6101C 53.4602 14.0635 52.7721 16.0572 52.2943 18.591C 51.8165 21.1051 51.5775 23.7273 51.5775 26.4575C 51.5775 29.2074 51.7687 31.5939 52.1509 33.617C 50.5837 33.5581 49.4178 33.2929 48.6533 32.8215C 47.9078 32.3697 47.5351 31.4957 47.5351 30.1993C 47.5351 29.7279 47.8218 27.2432 48.3952 22.7452C 48.9877 18.2276 49.284 14.751 49.284 12.3154C 49.284 9.87984 49.1406 7.82727 48.8539 6.15771C 50.383 6.55055 51.4342 7.2773 52.0076 8.33796C 52.6001 9.39861 52.8963 10.9503 52.8963 12.9931Z"/>
<path id="path4_fill" d="M 72.9769 10.0763C 72.8813 10.7834 72.6806 12.011 72.3748 13.7591C 71.725 17.4714 71.4 20.2213 71.4 22.0087C 71.4 23.7961 71.5338 24.9942 71.8014 25.6031C 70.3297 25.2103 69.3167 24.6112 68.7624 23.8059C 68.2082 22.9809 67.931 21.8221 67.931 20.3293C 67.931 19.0133 68.1317 17.2161 68.5331 14.9376C 68.9345 12.6395 69.1925 11.0878 69.3072 10.2825C 68.3133 10.4593 67.2525 10.803 66.1248 11.3137C 66.0866 10.8816 66.0675 10.5575 66.0675 10.3414C 66.0675 9.3004 66.3733 8.5933 66.9849 8.2201C 67.5965 7.82727 68.4757 7.62103 69.6225 7.60139C 69.7563 6.12825 69.8232 5.06759 69.8232 4.41941C 69.8232 3.77123 69.8137 3.23108 69.7945 2.79896C 69.7945 2.36684 69.7945 2.04275 69.7945 1.82669C 71.056 1.96418 71.9734 2.35702 72.5468 3.0052C 73.1202 3.63374 73.4069 4.53726 73.4069 5.71577C 73.4069 6.18717 73.3591 6.84518 73.2635 7.68977C 74.869 7.65049 76.0445 7.3264 76.7899 6.7175C 76.8281 7.11034 76.8472 7.40497 76.8472 7.60139C 76.8472 8.54419 76.6848 9.2022 76.3599 9.57539C 76.0349 9.92894 75.4902 10.1057 74.7257 10.1057C 73.9612 10.1057 73.3782 10.0959 72.9769 10.0763Z"/>
<path id="path5_fill" d="M 86.4728 9.16291C 85.2305 9.16291 84.1219 10.0272 83.1471 11.7556C 82.1724 13.4645 81.685 15.1733 81.685 16.8822C 81.685 20.457 82.5833 22.2444 84.3799 22.2444C 85.6605 22.2444 86.7021 21.3899 87.5049 19.6811C 88.3076 17.9526 88.709 16.0179 88.709 13.877C 88.709 10.7343 87.9636 9.16291 86.4728 9.16291ZM 84.0359 6.51126C 84.2461 6.51126 84.4373 6.58001 84.6093 6.7175C 84.8004 6.83536 84.896 6.96303 84.896 7.10052C 82.9656 8.47545 81.8092 10.3905 81.427 12.8458C 81.8283 11.7458 82.3157 10.7932 82.8891 9.98787C 83.4816 9.18255 84.0932 8.57366 84.724 8.16118C 85.9281 7.39515 87.1035 7.01213 88.2503 7.01213C 89.3971 7.01213 90.3718 7.59157 91.1746 8.75043C 91.9773 9.9093 92.3787 11.461 92.3787 13.4055C 92.3787 15.5858 91.9487 17.5893 91.0886 19.4159C 90.1329 21.4783 88.7759 22.9024 87.0175 23.688C 86.0236 24.1398 84.9342 24.3657 83.7492 24.3657C 82.0864 24.3657 80.6338 23.7077 79.3914 22.3917C 78.1682 21.056 77.5566 19.1508 77.5566 16.6759C 77.5566 14.1814 78.1491 11.9913 79.3341 10.1057C 80.5191 8.20046 82.0864 7.00231 84.0359 6.51126Z"/>
<path id="path6_fill" d="M 112.885 2.18024C 112.025 2.18024 111.308 2.45523 110.735 3.0052C 110.161 3.53553 109.875 4.29174 109.875 5.27383C 109.875 6.25592 110.114 7.1398 110.591 7.92548C 111.088 8.69151 111.69 9.34951 112.398 9.89948C 113.124 10.4298 113.908 11.0092 114.749 11.6378C 115.609 12.2663 116.392 12.8654 117.099 13.435C 117.826 13.985 118.428 14.6724 118.906 15.4974C 119.403 16.3224 119.651 17.1964 119.651 18.1196C 119.651 19.9463 118.925 21.498 117.472 22.7747C 116.02 24.0318 114.108 24.6603 111.738 24.6603C 109.387 24.6603 107.524 24.1398 106.148 23.0988C 104.772 22.0578 104.083 20.8793 104.083 19.5633C 104.083 18.2473 104.466 17.2259 105.23 16.4991C 105.995 15.7527 106.979 15.3795 108.183 15.3795C 108.527 15.3795 108.852 15.4188 109.158 15.4974C 108.565 16.4009 108.269 17.383 108.269 18.4437C 108.269 19.4847 108.585 20.3882 109.215 21.1542C 109.846 21.9006 110.677 22.2738 111.71 22.2738C 112.761 22.2738 113.64 21.9988 114.347 21.4489C 115.054 20.8793 115.408 20.1623 115.408 19.2981C 115.408 18.4142 115.169 17.6384 114.691 16.9705C 114.213 16.3027 113.621 15.7331 112.914 15.2617C 112.207 14.7707 111.432 14.2207 110.591 13.6118C 109.75 12.9832 108.976 12.3547 108.269 11.7262C 107.562 11.0976 106.97 10.3021 106.492 9.33969C 106.014 8.3576 105.775 7.28712 105.775 6.12825C 105.775 4.26228 106.434 2.77932 107.753 1.67938C 109.072 0.559792 110.849 0 113.086 0C 115.322 0 117.013 0.520508 118.16 1.56152C 119.326 2.5829 119.909 3.68284 119.909 4.86135C 119.909 6.02022 119.546 7.00231 118.82 7.80763C 118.093 8.5933 117.109 8.98613 115.867 8.98613C 115.446 8.98613 115.035 8.94685 114.634 8.86828C 115.57 7.84691 116.039 6.77643 116.039 5.65685C 116.039 4.51762 115.733 3.65338 115.121 3.06412C 114.51 2.47487 113.764 2.18024 112.885 2.18024Z"/>
<path id="path7_fill" d="M 126.644 18.3553C 126.644 19.2785 126.806 20.0347 127.131 20.6239C 127.475 21.1935 127.953 21.4783 128.565 21.4783C 129.463 21.4783 130.313 20.9382 131.116 19.8579C 131.938 18.7776 132.588 17.3928 133.066 15.7036C 133.563 14.0144 133.811 12.4136 133.811 10.9012C 133.811 9.36915 133.754 8.13171 133.639 7.18891C 134.212 7.14962 134.614 7.12998 134.843 7.12998C 135.818 7.12998 136.554 7.31658 137.051 7.68977C 137.548 8.06297 137.796 8.73079 137.796 9.69324C 137.796 10.0664 137.567 11.5887 137.108 14.26C 136.649 16.9116 136.42 19.0427 136.42 20.6534C 136.42 22.2444 136.716 23.6586 137.309 24.896C 135.875 24.6407 134.824 24.1005 134.155 23.2756C 133.486 22.431 133.152 21.223 133.152 19.6516C 133.152 19.3767 133.19 18.8463 133.266 18.0607C 132.75 19.9266 131.833 21.4292 130.514 22.5685C 129.195 23.7077 127.896 24.2773 126.615 24.2773C 125.354 24.2773 124.331 23.7961 123.547 22.8336C 122.783 21.8515 122.401 20.4668 122.401 18.6794C 122.401 16.892 122.706 15.1635 123.318 13.4939C 123.949 11.8047 124.885 10.3807 126.128 9.22184C 127.37 8.04333 128.756 7.45407 130.285 7.45407C 131.164 7.45407 132.062 7.67013 132.98 8.10225C 131.049 8.80936 129.511 10.2039 128.364 12.286C 127.217 14.3484 126.644 16.3715 126.644 18.3553Z"/>
<path id="path8_fill" d="M 152.354 6.92374C 153.481 6.92374 154.284 7.28712 154.762 8.01386C 155.259 8.72097 155.507 9.69324 155.507 10.9307C 155.507 12.1485 155.316 13.8671 154.934 16.0867C 154.571 18.3062 154.389 19.9266 154.389 20.948C 154.389 21.9497 154.513 22.6863 154.762 23.1577C 155.01 23.6095 155.431 24.0023 156.023 24.3362C 155.775 24.3559 155.421 24.3657 154.962 24.3657C 153.357 24.3657 152.21 24.1103 151.522 23.5997C 150.853 23.089 150.519 22.1953 150.519 20.9185C 150.519 20.1918 150.71 18.7776 151.092 16.6759C 151.474 14.5546 151.665 12.9734 151.665 11.9324C 151.665 10.636 151.283 9.98787 150.519 9.98787C 150.079 9.98787 149.582 10.253 149.028 10.7834C 148.474 11.3137 147.938 12.0404 147.422 12.9636C 146.906 13.8671 146.476 15.0358 146.132 16.4697C 145.788 17.9035 145.616 19.3374 145.616 20.7712C 145.616 22.1854 145.674 23.2363 145.788 23.9237C 145.177 23.963 144.775 23.9827 144.584 23.9827C 143.495 23.9827 142.711 23.7863 142.233 23.3934C 141.755 23.0006 141.516 22.3524 141.516 21.4489C 141.516 21.056 141.717 19.5436 142.118 16.9116C 142.52 14.2796 142.721 12.1878 142.721 10.636C 142.721 9.0647 142.558 7.62103 142.233 6.30503C 143.628 6.75679 144.603 7.40497 145.157 8.24957C 145.712 9.07452 145.989 10.0272 145.989 11.1075C 145.989 12.1681 145.874 13.4055 145.645 14.8198C 146.276 12.6199 147.269 10.7539 148.626 9.22184C 149.984 7.68977 151.226 6.92374 152.354 6.92374Z"/>
<path id="path9_fill" d="M 165.369 10.0763C 165.273 10.7834 165.073 12.011 164.767 13.7591C 164.117 17.4714 163.792 20.2213 163.792 22.0087C 163.792 23.7961 163.926 24.9942 164.193 25.6031C 162.722 25.2103 161.709 24.6112 161.154 23.8059C 160.6 22.9809 160.323 21.8221 160.323 20.3293C 160.323 19.0133 160.524 17.2161 160.925 14.9376C 161.326 12.6395 161.584 11.0878 161.699 10.2825C 160.705 10.4593 159.644 10.803 158.517 11.3137C 158.479 10.8816 158.459 10.5575 158.459 10.3414C 158.459 9.3004 158.765 8.5933 159.377 8.2201C 159.988 7.82727 160.868 7.62103 162.014 7.60139C 162.148 6.12825 162.215 5.06759 162.215 4.41941C 162.215 3.77123 162.206 3.23108 162.186 2.79896C 162.186 2.36684 162.186 2.04275 162.186 1.82669C 163.448 1.96418 164.365 2.35702 164.939 3.0052C 165.512 3.63374 165.799 4.53726 165.799 5.71577C 165.799 6.18717 165.751 6.84518 165.655 7.68977C 167.261 7.65049 168.436 7.3264 169.182 6.7175C 169.22 7.11034 169.239 7.40497 169.239 7.60139C 169.239 8.54419 169.077 9.2022 168.752 9.57539C 168.427 9.92894 167.882 10.1057 167.118 10.1057C 166.353 10.1057 165.77 10.0959 165.369 10.0763Z"/>
<path id="path10_fill" d="M 173.848 18.3553C 173.848 19.2785 174.01 20.0347 174.335 20.6239C 174.679 21.1935 175.157 21.4783 175.768 21.4783C 176.667 21.4783 177.517 20.9382 178.32 19.8579C 179.142 18.7776 179.792 17.3928 180.27 15.7036C 180.766 14.0144 181.015 12.4136 181.015 10.9012C 181.015 9.36915 180.958 8.13171 180.843 7.18891C 181.416 7.14962 181.818 7.12998 182.047 7.12998C 183.022 7.12998 183.758 7.31658 184.255 7.68977C 184.752 8.06297 185 8.73079 185 9.69324C 185 10.0664 184.771 11.5887 184.312 14.26C 183.853 16.9116 183.624 19.0427 183.624 20.6534C 183.624 22.2444 183.92 23.6586 184.513 24.896C 183.079 24.6407 182.028 24.1005 181.359 23.2756C 180.69 22.431 180.356 21.223 180.356 19.6516C 180.356 19.3767 180.394 18.8463 180.47 18.0607C 179.954 19.9266 179.037 21.4292 177.718 22.5685C 176.399 23.7077 175.099 24.2773 173.819 24.2773C 172.557 24.2773 171.535 23.7961 170.751 22.8336C 169.987 21.8515 169.604 20.4668 169.604 18.6794C 169.604 16.892 169.91 15.1635 170.522 13.4939C 171.153 11.8047 172.089 10.3807 173.332 9.22184C 174.574 8.04333 175.96 7.45407 177.489 7.45407C 178.368 7.45407 179.266 7.67013 180.184 8.10225C 178.253 8.80936 176.715 10.2039 175.568 12.286C 174.421 14.3484 173.848 16.3715 173.848 18.3553Z"/>
</defs>
</svg>
