<svg width="1440" height="530" viewBox="0 0 1440 530" version="1.1" xmlns="http://www.w3.org/2000/svg" xmlns:xlink="http://www.w3.org/1999/xlink">
<title>Vector 4</title>
<desc>Created using Figma</desc>
<g id="Canvas" transform="translate(-6292 -3677)">
<g id="Vector 4">
<use xlink:href="#path0_fill" transform="translate(6292 3677)" fill="url(#paint0_linear)" fill-opacity="0.48"/>
</g>
</g>
<defs>
<linearGradient id="paint0_linear" x1="0" y1="0" x2="1" y2="0" gradientUnits="userSpaceOnUse" gradientTransform="matrix(1.04314e-13 530 -1703.57 -2.62137e-13 1571.79 1.08008e-13)">
<stop offset="0" stop-color="#D1244D"/>
<stop offset="1" stop-color="#D1244D" stop-opacity="0"/>
</linearGradient>
<path id="path0_fill" d="M 67.5556 236.444L 0 236.444L 0 530L 1440 530L 1440 304L 1425.78 304L 1425.78 284.444L 1409.78 284.444L 1409.78 298.667L 1390.22 298.667L 1390.22 325.333L 1365.33 325.333L 1365.33 343.111L 1354.67 343.111L 1354.67 309.333L 1345.78 309.333L 1345.78 320L 1338.67 320L 1338.67 362.667L 1329.78 362.667L 1329.78 250.667L 1283.56 250.667L 1283.56 343.111L 1267.56 343.111L 1267.56 304L 1255.11 304L 1255.11 282.667L 1244.44 282.667L 1235.56 236.444L 1226.67 282.667L 1217.78 282.667L 1217.78 304L 1201.78 304L 1201.78 371.556L 1191.11 371.556L 1173.33 353.778L 1155.56 371.556L 1143.11 371.556L 1125.33 353.778L 1107.56 371.556L 1082.67 371.556L 1054.22 343.111L 1025.78 371.556L 1025.78 320L 1011.56 320L 1011.56 304L 984.889 304L 984.889 332.444L 963.556 353.778L 963.556 282.667L 954.667 282.667L 954.667 257.778L 929.778 257.778C 929.778 317.511 870.519 332.444 840.889 332.444L 840.889 353.778L 819.556 353.778L 819.556 332.444L 776.889 332.444L 776.889 320L 752 320L 752 282.667L 768 282.667L 768 273.778L 736 273.778L 736 257.778L 686.222 257.778L 686.222 273.778L 668.444 273.778L 668.444 353.778L 632.889 353.778L 632.889 304L 622.222 304L 592 273.778L 561.778 304L 547.556 304L 547.556 332.444L 515.556 332.444L 515.556 295.111L 476.444 295.111L 476.444 144L 456.889 144L 456.889 97.7778L 448 97.7778L 448 72.8889L 439.111 72.8889L 439.111 44.4444L 430.222 44.4444L 430.222 0L 405.333 0L 405.333 44.4444L 396.444 44.4444L 396.444 72.8889L 387.556 72.8889L 387.556 97.7778L 375.111 97.7778L 375.111 273.778L 366.222 273.778L 366.222 311.111L 336 311.111L 336 213.333L 300.444 213.333L 300.444 236.444L 282.667 236.444L 282.667 295.111L 264.889 295.111L 264.889 311.111L 247.111 311.111L 247.111 295.111L 206.222 295.111L 206.222 250.667L 149.333 250.667L 149.333 197.333L 140.444 197.333L 131.556 110.222L 122.667 197.333L 113.778 197.333L 113.778 222.222L 87.1111 222.222L 87.1111 295.111L 67.5556 295.111L 67.5556 236.444Z"/>
</defs>
</svg>
