<svg width="559" height="126" viewBox="0 0 559 126" version="1.1" xmlns="http://www.w3.org/2000/svg" xmlns:xlink="http://www.w3.org/1999/xlink">
<title>LogoBigWhite</title>
<desc>Created using Figma</desc>
<g id="Canvas" transform="translate(-6727 368)">
<g id="LogoBigWhite">
<g id="Union">
<use xlink:href="#path0_fill" transform="translate(6960.88 -368)" fill="url(#paint0_linear)"/>
<use xlink:href="#path0_fill" transform="translate(6960.88 -368)" fill="#ECEEF8"/>
</g>
<g id="Title">
<use xlink:href="#path1_fill" transform="translate(6727 -326.244)" fill="#ECEEF8"/>
<use xlink:href="#path2_fill" transform="translate(6727 -326.244)" fill="#ECEEF8"/>
<use xlink:href="#path3_fill" transform="translate(6727 -326.244)" fill="#ECEEF8"/>
<use xlink:href="#path4_fill" transform="translate(6727 -326.244)" fill="#ECEEF8"/>
<use xlink:href="#path5_fill" transform="translate(6727 -326.244)" fill="#ECEEF8"/>
<use xlink:href="#path6_fill" transform="translate(6727 -326.244)" fill="#ECEEF8"/>
<use xlink:href="#path7_fill" transform="translate(6727 -326.244)" fill="#ECEEF8"/>
<use xlink:href="#path8_fill" transform="translate(6727 -326.244)" fill="#ECEEF8"/>
<use xlink:href="#path9_fill" transform="translate(6727 -326.244)" fill="#ECEEF8"/>
<use xlink:href="#path10_fill" transform="translate(6727 -326.244)" fill="#ECEEF8"/>
<use xlink:href="#path11_fill" transform="translate(6727 -326.244)" fill="#ECEEF8"/>
<use xlink:href="#path12_fill" transform="translate(6727 -326.244)" fill="#ECEEF8"/>
</g>
</g>
</g>
<defs>
<linearGradient id="paint0_linear" x1="0" y1="0" x2="1" y2="0" gradientUnits="userSpaceOnUse" gradientTransform="matrix(5.55395e-15 125.379 -90.7029 7.67725e-15 90.7029 1.11359e-13)">
<stop offset="0" stop-color="#EB5757"/>
<stop offset="1" stop-color="#9E2B99"/>
</linearGradient>
<path id="path0_fill" fill-rule="evenodd" d="M 75.3386 2.65408C 81.0086 -3.0156 90.7029 0.999903 90.7029 9.01803L 90.7029 115.236C 90.7029 119.923 87.3465 124.363 82.2009 124.951C 66.1345 126.786 47.3123 122.57 31.9129 115.223C 16.8289 108.027 3.29372 96.9636 0.234146 83.8504C -0.575424 80.38 0.815201 77.1781 2.85622 75.1366C 5.63754 72.3552 40.9056 36.9415 40.9773 37.0158L 75.3386 2.65408ZM 15.0369 77.0988L 10.0896 82.0459C 10.533 83.7102 11.2771 85.4044 12.2966 87.104C 12.8396 83.9431 13.7986 80.5334 15.0369 77.0988ZM 23.8445 98.4715C 22.5819 96.9243 21.4666 95.1571 21.8982 90.6165C 22.3142 85.9192 24.1052 80.5672 26.8699 74.5757C 28.3455 71.3669 30.0535 68.1359 31.8875 65.0042C 31.7566 70.0724 32.0203 75.4068 32.6101 80.5592C 33.5838 88.9401 35.49 97.5215 37.9422 104.469C 38.3054 105.495 38.6902 106.512 39.0945 107.51C 38.1248 107.087 37.1648 106.649 36.2185 106.198C 34.828 105.534 25.5 100.5 23.8445 98.4715ZM 80.7029 115.055C 72.2683 115.96 62.6775 114.93 53.2791 112.444C 51.4002 110.349 49.2908 106.554 47.3679 101.128C 45.1023 94.7633 43.4461 87.2822 42.5447 79.4131C 41.6297 71.5457 41.5349 63.9723 42.5105 57.326C 43.2215 52.406 44.4431 48.6868 45.948 46.187L 48.3054 43.8293C 48.3904 45.1482 48.5154 46.484 48.6756 47.8267C 49.5642 55.2221 51.6687 63.8159 54.6306 71.9509C 60.0613 86.8246 69.0203 102.293 80.7029 109.749L 80.7029 115.055ZM 80.7029 11.4322L 67.697 24.4385C 67.8513 26.7867 68.5672 29.7104 69.8445 33.0669C 71.4529 37.315 73.6843 41.594 76.2234 45.7614C 77.7097 48.2068 79.2254 50.478 80.7029 52.5213L 80.7029 11.4322ZM 58.8562 33.2785L 59.2273 32.9075C 59.4246 33.5626 59.6365 34.2152 59.8601 34.8634C 60.0632 35.4545 60.2771 36.0419 60.4988 36.6242C 62.3279 41.4073 64.9715 46.5033 67.6814 50.9609C 70.405 55.4285 73.4197 59.6496 75.99 62.7941C 77.2986 64.3906 78.6287 65.8685 79.7341 66.9574C 80.0379 67.2556 80.3621 67.5635 80.7029 67.8671L 80.7029 96.9243C 74.0906 90.3241 68.197 79.9505 64.0242 68.5214C 61.2361 60.9064 59.4041 53.4378 58.6052 46.6456C 57.9226 40.9069 58.0916 36.3471 58.8562 33.2785Z"/>
<path id="path1_fill" d="M 29.764 30.688C 29.988 30.688 30.212 30.7347 30.436 30.828C 30.66 30.9027 30.8747 31.0427 31.08 31.248L 34.832 35.196C 33.1893 37.3427 31.1267 38.9667 28.644 40.068C 26.18 41.1507 23.2587 41.692 19.88 41.692C 16.7813 41.692 14 41.1693 11.536 40.124C 9.09067 39.06 7.00933 37.604 5.292 35.756C 3.59333 33.8893 2.28667 31.6867 1.372 29.148C 0.457333 26.5907 0 23.8187 0 20.832C 0 17.7893 0.494667 14.9987 1.484 12.46C 2.47333 9.90267 3.864 7.7 5.656 5.852C 7.448 4.004 9.59467 2.56667 12.096 1.54C 14.5973 0.513333 17.3507 0 20.356 0C 21.8867 0 23.324 0.14 24.668 0.42C 26.0307 0.681333 27.3 1.05467 28.476 1.54C 29.652 2.00667 30.7347 2.576 31.724 3.248C 32.7133 3.92 33.5907 4.648 34.356 5.432L 31.164 9.716C 30.9587 9.97733 30.716 10.22 30.436 10.444C 30.156 10.6493 29.764 10.752 29.26 10.752C 28.924 10.752 28.6067 10.6773 28.308 10.528C 28.0093 10.3787 27.692 10.2013 27.356 9.996C 27.02 9.772 26.6467 9.53867 26.236 9.296C 25.844 9.03467 25.368 8.80133 24.808 8.596C 24.2667 8.372 23.6227 8.18533 22.876 8.036C 22.148 7.88667 21.2893 7.812 20.3 7.812C 18.732 7.812 17.2947 8.10133 15.988 8.68C 14.7 9.25867 13.58 10.108 12.628 11.228C 11.6947 12.3293 10.9667 13.692 10.444 15.316C 9.94 16.9213 9.688 18.76 9.688 20.832C 9.688 22.9227 9.968 24.78 10.528 26.404C 11.1067 28.028 11.8813 29.4 12.852 30.52C 13.8413 31.6213 14.9893 32.4613 16.296 33.04C 17.6027 33.6187 19.0027 33.908 20.496 33.908C 21.3547 33.908 22.1387 33.8707 22.848 33.796C 23.5573 33.7027 24.22 33.5627 24.836 33.376C 25.452 33.1707 26.0307 32.9093 26.572 32.592C 27.1133 32.256 27.664 31.836 28.224 31.332C 28.448 31.1453 28.6907 30.996 28.952 30.884C 29.2133 30.7533 29.484 30.688 29.764 30.688Z"/>
<path id="path2_fill" d="M 52.2353 19.628C 53.5233 19.628 54.6153 19.4693 55.5113 19.152C 56.426 18.816 57.1726 18.3587 57.7513 17.78C 58.33 17.2013 58.75 16.5293 59.0113 15.764C 59.2726 14.98 59.4033 14.14 59.4033 13.244C 59.4033 11.452 58.8153 10.052 57.6393 9.044C 56.482 8.036 54.6806 7.532 52.2353 7.532L 48.4273 7.532L 48.4273 19.628L 52.2353 19.628ZM 72.3393 41.244L 63.7713 41.244C 62.1846 41.244 61.046 40.6467 60.3553 39.452L 53.5793 27.608C 53.262 27.104 52.9073 26.74 52.5153 26.516C 52.1233 26.2733 51.5633 26.152 50.8353 26.152L 48.4273 26.152L 48.4273 41.244L 38.9633 41.244L 38.9633 0.448L 52.2353 0.448C 55.1846 0.448 57.6953 0.756 59.7673 1.372C 61.858 1.96933 63.5566 2.80933 64.8633 3.892C 66.1886 4.97467 67.15 6.25333 67.7473 7.728C 68.3447 9.20267 68.6433 10.808 68.6433 12.544C 68.6433 13.8693 68.466 15.12 68.1113 16.296C 67.7566 17.472 67.234 18.564 66.5433 19.572C 65.8526 20.5613 64.994 21.448 63.9673 22.232C 62.9593 23.016 61.7926 23.66 60.4673 24.164C 61.0833 24.4813 61.662 24.8827 62.2033 25.368C 62.7446 25.8347 63.23 26.3947 63.6593 27.048L 72.3393 41.244Z"/>
<path id="path3_fill" d="M 93.1245 25.732L 93.1245 41.244L 83.6605 41.244L 83.6605 25.732L 68.8765 0.448L 77.2205 0.448C 78.0418 0.448 78.6858 0.644 79.1525 1.036C 79.6378 1.40933 80.0392 1.89467 80.3565 2.492L 86.1245 14.364C 86.6098 15.2973 87.0485 16.1747 87.4405 16.996C 87.8325 17.7987 88.1778 18.592 88.4765 19.376C 88.7565 18.5733 89.0738 17.7707 89.4285 16.968C 89.8018 16.1467 90.2312 15.2787 90.7165 14.364L 96.4285 2.492C 96.5592 2.24933 96.7178 2.00667 96.9045 1.764C 97.0912 1.52133 97.3058 1.30667 97.5485 1.12C 97.8098 0.914667 98.0992 0.756 98.4165 0.644C 98.7525 0.513333 99.1165 0.448 99.5085 0.448L 107.909 0.448L 93.1245 25.732Z"/>
<path id="path4_fill" d="M 125.488 20.468C 127.952 20.468 129.725 19.88 130.808 18.704C 131.891 17.528 132.432 15.8853 132.432 13.776C 132.432 12.8427 132.292 11.9933 132.012 11.228C 131.732 10.4627 131.303 9.80933 130.724 9.268C 130.164 8.708 129.445 8.27867 128.568 7.98C 127.709 7.68133 126.683 7.532 125.488 7.532L 120.56 7.532L 120.56 20.468L 125.488 20.468ZM 125.488 0.448C 128.363 0.448 130.827 0.793333 132.88 1.484C 134.952 2.156 136.651 3.08933 137.976 4.284C 139.32 5.47867 140.309 6.888 140.944 8.512C 141.579 10.136 141.896 11.8907 141.896 13.776C 141.896 15.8107 141.569 17.6773 140.916 19.376C 140.263 21.0747 139.264 22.5307 137.92 23.744C 136.576 24.9573 134.868 25.9093 132.796 26.6C 130.743 27.272 128.307 27.608 125.488 27.608L 120.56 27.608L 120.56 41.244L 111.096 41.244L 111.096 0.448L 125.488 0.448Z"/>
<path id="path5_fill" d="M 176.014 7.952L 164.534 7.952L 164.534 41.244L 155.07 41.244L 155.07 7.952L 143.59 7.952L 143.59 0.448L 176.014 0.448L 176.014 7.952Z"/>
<path id="path6_fill" d="M 219.933 20.832C 219.933 23.7813 219.42 26.5253 218.393 29.064C 217.385 31.6027 215.957 33.8147 214.109 35.7C 212.261 37.5667 210.03 39.032 207.417 40.096C 204.822 41.16 201.938 41.692 198.765 41.692C 195.592 41.692 192.698 41.16 190.085 40.096C 187.472 39.032 185.232 37.5667 183.365 35.7C 181.517 33.8147 180.08 31.6027 179.053 29.064C 178.045 26.5253 177.541 23.7813 177.541 20.832C 177.541 17.8827 178.045 15.1387 179.053 12.6C 180.08 10.0613 181.517 7.85867 183.365 5.992C 185.232 4.12533 187.472 2.66 190.085 1.596C 192.698 0.532 195.592 0 198.765 0C 201.938 0 204.822 0.541333 207.417 1.624C 210.03 2.688 212.261 4.15333 214.109 6.02C 215.957 7.88667 217.385 10.0893 218.393 12.628C 219.42 15.1667 219.933 17.9013 219.933 20.832ZM 210.245 20.832C 210.245 18.816 209.984 17.0053 209.461 15.4C 208.938 13.776 208.182 12.404 207.193 11.284C 206.222 10.164 205.028 9.30533 203.609 8.708C 202.19 8.11067 200.576 7.812 198.765 7.812C 196.936 7.812 195.302 8.11067 193.865 8.708C 192.446 9.30533 191.242 10.164 190.253 11.284C 189.282 12.404 188.536 13.776 188.013 15.4C 187.49 17.0053 187.229 18.816 187.229 20.832C 187.229 22.8667 187.49 24.696 188.013 26.32C 188.536 27.9253 189.282 29.288 190.253 30.408C 191.242 31.528 192.446 32.3867 193.865 32.984C 195.302 33.5627 196.936 33.852 198.765 33.852C 200.576 33.852 202.19 33.5627 203.609 32.984C 205.028 32.3867 206.222 31.528 207.193 30.408C 208.182 29.288 208.938 27.9253 209.461 26.32C 209.984 24.696 210.245 22.8667 210.245 20.832Z"/>
<path id="path7_fill" d="M 352.15 7.728L 352.15 17.248L 364.974 17.248L 364.974 24.248L 352.15 24.248L 352.15 33.964L 368.894 33.964L 368.894 41.244L 342.63 41.244L 342.63 0.448L 368.894 0.448L 368.894 7.728L 352.15 7.728Z"/>
<path id="path8_fill" d="M 413.007 0.448L 396.655 41.244L 388.087 41.244L 371.735 0.448L 379.351 0.448C 380.173 0.448 380.835 0.644 381.339 1.036C 381.843 1.40933 382.226 1.89467 382.487 2.492L 390.383 24.332C 390.757 25.284 391.121 26.3293 391.475 27.468C 391.83 28.588 392.166 29.764 392.483 30.996C 392.745 29.764 393.034 28.588 393.351 27.468C 393.687 26.3293 394.042 25.284 394.415 24.332L 402.255 2.492C 402.461 1.96933 402.825 1.50267 403.347 1.092C 403.889 0.662667 404.551 0.448 405.335 0.448L 413.007 0.448Z"/>
<path id="path9_fill" d="M 427.424 7.728L 427.424 17.248L 440.248 17.248L 440.248 24.248L 427.424 24.248L 427.424 33.964L 444.168 33.964L 444.168 41.244L 417.904 41.244L 417.904 0.448L 444.168 0.448L 444.168 7.728L 427.424 7.728Z"/>
<path id="path10_fill" d="M 487.302 0.448L 487.302 41.244L 482.374 41.244C 481.646 41.244 481.03 41.132 480.526 40.908C 480.04 40.6653 479.555 40.2547 479.07 39.676L 459.833 15.344C 459.908 16.072 459.955 16.7813 459.974 17.472C 460.011 18.144 460.03 18.7787 460.03 19.376L 460.03 41.244L 451.686 41.244L 451.686 0.448L 456.67 0.448C 457.08 0.448 457.426 0.466667 457.706 0.504C 457.986 0.541333 458.238 0.616 458.462 0.728C 458.686 0.821333 458.9 0.961333 459.105 1.148C 459.311 1.33467 459.544 1.58667 459.806 1.904L 479.21 26.404C 479.116 25.62 479.051 24.864 479.014 24.136C 478.976 23.3893 478.958 22.6893 478.958 22.036L 478.958 0.448L 487.302 0.448Z"/>
<path id="path11_fill" d="M 526.213 7.952L 514.733 7.952L 514.733 41.244L 505.269 41.244L 505.269 7.952L 493.789 7.952L 493.789 0.448L 526.213 0.448L 526.213 7.952Z"/>
<path id="path12_fill" d="M 555.242 8.736C 554.962 9.184 554.663 9.52 554.346 9.744C 554.047 9.968 553.655 10.08 553.17 10.08C 552.74 10.08 552.274 9.94933 551.77 9.688C 551.284 9.408 550.724 9.1 550.09 8.764C 549.474 8.428 548.764 8.12933 547.962 7.868C 547.159 7.588 546.244 7.448 545.218 7.448C 543.444 7.448 542.119 7.83067 541.242 8.596C 540.383 9.34267 539.954 10.36 539.954 11.648C 539.954 12.4693 540.215 13.1507 540.738 13.692C 541.26 14.2333 541.942 14.7 542.782 15.092C 543.64 15.484 544.611 15.848 545.694 16.184C 546.795 16.5013 547.915 16.8653 549.054 17.276C 550.192 17.668 551.303 18.1347 552.386 18.676C 553.487 19.2173 554.458 19.908 555.298 20.748C 556.156 21.588 556.847 22.6147 557.37 23.828C 557.892 25.0227 558.154 26.4693 558.154 28.168C 558.154 30.0533 557.827 31.8173 557.174 33.46C 556.52 35.1027 555.568 36.54 554.318 37.772C 553.086 38.9853 551.555 39.9467 549.726 40.656C 547.915 41.3467 545.852 41.692 543.538 41.692C 542.268 41.692 540.971 41.5613 539.646 41.3C 538.339 41.0387 537.07 40.6747 535.838 40.208C 534.606 39.7227 533.448 39.1533 532.366 38.5C 531.283 37.8467 530.34 37.1187 529.538 36.316L 532.338 31.892C 532.562 31.5747 532.851 31.3133 533.206 31.108C 533.579 30.884 533.98 30.772 534.41 30.772C 534.97 30.772 535.53 30.9493 536.09 31.304C 536.668 31.6587 537.312 32.0507 538.022 32.48C 538.75 32.9093 539.58 33.3013 540.514 33.656C 541.447 34.0107 542.548 34.188 543.818 34.188C 545.535 34.188 546.87 33.8147 547.822 33.068C 548.774 32.3027 549.25 31.0987 549.25 29.456C 549.25 28.504 548.988 27.7293 548.466 27.132C 547.943 26.5347 547.252 26.04 546.394 25.648C 545.554 25.256 544.592 24.9107 543.51 24.612C 542.427 24.3133 541.316 23.9867 540.178 23.632C 539.039 23.2587 537.928 22.8107 536.846 22.288C 535.763 21.7467 534.792 21.0467 533.934 20.188C 533.094 19.3107 532.412 18.228 531.89 16.94C 531.367 15.6333 531.106 14.028 531.106 12.124C 531.106 10.5933 531.414 9.1 532.03 7.644C 532.646 6.188 533.551 4.89067 534.746 3.752C 535.94 2.61333 537.406 1.708 539.142 1.036C 540.878 0.345333 542.866 0 545.106 0C 546.356 0 547.57 0.102667 548.746 0.308C 549.94 0.494667 551.07 0.784 552.134 1.176C 553.198 1.54933 554.187 2.00667 555.102 2.548C 556.035 3.07067 556.866 3.668 557.594 4.34L 555.242 8.736Z"/>
</defs>
</svg>
