<svg width="30" height="40" viewBox="0 0 30 40" version="1.1" xmlns="http://www.w3.org/2000/svg" xmlns:xlink="http://www.w3.org/1999/xlink">
<title>LogoHeader</title>
<desc>Created using Figma</desc>
<g id="Canvas" transform="translate(-17079 518)">
<g id="LogoHeader">
<g id="Union">
<use xlink:href="#path0_fill" transform="translate(17079 -518)" fill="url(#paint0_linear)"/>
<use xlink:href="#path0_fill" transform="translate(17079 -518)" fill="#CCCFDE"/>
</g>
</g>
</g>
<defs>
<linearGradient id="paint0_linear" x1="0" y1="0" x2="1" y2="0" gradientUnits="userSpaceOnUse" gradientTransform="matrix(1.79217e-15 40 -29.2683 2.44929e-15 29.2683 -2.44929e-15)">
<stop offset="0" stop-color="#EB5757"/>
<stop offset="1" stop-color="#9E2B99"/>
</linearGradient>
<path id="path0_fill" fill-rule="evenodd" d="M 24.3105 0.846738C 26.1401 -0.962075 29.2683 0.319002 29.2683 2.87705L 29.2683 36.7641C 29.2683 38.2592 28.1852 39.6757 26.5249 39.8633C 21.3405 40.449 15.2669 39.104 10.2977 36.76C 5.43039 34.4641 1.06283 30.9346 0.0755549 26.751C -0.18568 25.6438 0.263051 24.6224 0.921653 23.971C 1.81914 23.0837 13.1996 11.7856 13.2227 11.8092L 24.3105 0.846738ZM 4.85215 24.5971L 3.25575 26.1753C 3.39881 26.7063 3.63893 27.2468 3.96792 27.789C 4.14313 26.7806 4.45258 25.6928 4.85215 24.5971ZM 7.69422 31.4156C 7.28679 30.922 6.9269 30.3582 7.06618 28.9096C 7.20042 27.411 7.77835 25.7036 8.67046 23.7921C 9.14661 22.7684 9.69775 21.7376 10.2895 20.7385C 10.2473 22.3554 10.3324 24.0572 10.5227 25.701C 10.8369 28.3748 11.452 31.1126 12.2433 33.3291C 12.3605 33.6565 12.4847 33.9808 12.6151 34.2994C 12.3022 34.1643 11.9925 34.0247 11.6871 33.8806C 11.2384 33.6689 8.22842 32.0628 7.69422 31.4156ZM 26.0415 36.7064C 23.3198 36.9949 20.225 36.6664 17.1923 35.8734C 16.586 35.2049 15.9053 33.9941 15.2848 32.2632C 14.5538 30.2326 14.0193 27.8459 13.7285 25.3354C 13.4332 22.8254 13.4026 20.4093 13.7174 18.2889C 13.9468 16.7192 14.341 15.5327 14.8266 14.7352L 15.5873 13.983C 15.6148 14.4037 15.6551 14.8299 15.7068 15.2583C 15.9935 17.6177 16.6726 20.3594 17.6284 22.9547C 19.3808 27.6999 22.2717 32.6348 26.0415 35.0135L 26.0415 36.7064ZM 26.0415 3.64725L 21.8447 7.79668C 21.8945 8.54584 22.1255 9.4786 22.5376 10.5494C 23.0566 11.9047 23.7767 13.2699 24.596 14.5994C 25.0756 15.3796 25.5647 16.1041 26.0415 16.756L 26.0415 3.64725ZM 18.9919 10.6169L 19.1117 10.4986C 19.1753 10.7076 19.2437 10.9158 19.3159 11.1226C 19.3814 11.3111 19.4504 11.4985 19.5219 11.6843C 20.1122 13.2103 20.9652 14.8361 21.8396 16.2582C 22.7185 17.6835 23.6913 19.0302 24.5207 20.0334C 24.943 20.5427 25.3721 21.0142 25.7289 21.3616C 25.8269 21.4567 25.9315 21.555 26.0415 21.6518L 26.0415 30.922C 23.9078 28.8163 22.006 25.5068 20.6595 21.8606C 19.7599 19.4311 19.1687 17.0484 18.9109 14.8815C 18.6907 13.0506 18.7452 11.5959 18.9919 10.6169Z"/>
</defs>
</svg>
