<svg width="438" height="98" viewBox="0 0 438 98" version="1.1" xmlns="http://www.w3.org/2000/svg" xmlns:xlink="http://www.w3.org/1999/xlink">
<title>LogoBig</title>
<desc>Created using Figma</desc>
<g id="Canvas" transform="translate(-13756 368)">
<g id="LogoBig">
<g id="Union">
<use xlink:href="#path0_fill" transform="translate(13939.5 -368)" fill="url(#paint0_linear)"/>
</g>
<g id="Title">
<use xlink:href="#path1_fill" transform="translate(13756 -335.362)" fill="#98A0AF"/>
<use xlink:href="#path2_fill" transform="translate(13756 -335.362)" fill="#98A0AF"/>
<use xlink:href="#path3_fill" transform="translate(13756 -335.362)" fill="#98A0AF"/>
<use xlink:href="#path4_fill" transform="translate(13756 -335.362)" fill="#98A0AF"/>
<use xlink:href="#path5_fill" transform="translate(13756 -335.362)" fill="#98A0AF"/>
<use xlink:href="#path6_fill" transform="translate(13756 -335.362)" fill="#98A0AF"/>
<use xlink:href="#path7_fill" transform="translate(13756 -335.362)" fill="#98A0AF"/>
<use xlink:href="#path8_fill" transform="translate(13756 -335.362)" fill="#98A0AF"/>
<use xlink:href="#path9_fill" transform="translate(13756 -335.362)" fill="#98A0AF"/>
<use xlink:href="#path10_fill" transform="translate(13756 -335.362)" fill="#98A0AF"/>
<use xlink:href="#path11_fill" transform="translate(13756 -335.362)" fill="#98A0AF"/>
<use xlink:href="#path12_fill" transform="translate(13756 -335.362)" fill="#98A0AF"/>
</g>
</g>
</g>
<defs>
<linearGradient id="paint0_linear" x1="0" y1="0" x2="1" y2="0" gradientUnits="userSpaceOnUse" gradientTransform="matrix(4.35835e-15 98 -71.1773 6.00077e-15 71.1773 8.70415e-14)">
<stop offset="0" stop-color="#EB5757"/>
<stop offset="1" stop-color="#9E2B99"/>
</linearGradient>
<path id="path0_fill" fill-rule="evenodd" d="M 59.1205 2.07451C 63.5698 -2.35708 71.1773 0.781554 71.1773 7.04877L 71.1773 90.072C 71.1773 93.7351 68.5434 97.2055 64.5055 97.6651C 51.8978 99.1 37.1274 95.8047 25.043 90.062C 13.2061 84.437 2.58468 75.7897 0.183741 65.54C -0.451553 62.8274 0.639712 60.3248 2.24136 58.729C 4.42394 56.5551 32.0999 28.8746 32.1561 28.9327L 59.1205 2.07451ZM 11.7999 60.2628L 7.91762 64.1296C 8.26554 65.4305 8.84949 66.7547 9.64955 68.0832C 10.0756 65.6125 10.8282 62.9474 11.7999 60.2628ZM 18.7115 76.9683C 17.7207 75.759 16.8455 74.3777 17.1842 70.8286C 17.5106 67.1571 18.9161 62.9737 21.0856 58.2906C 22.2435 55.7825 23.5839 53.2571 25.0231 50.8092C 24.9204 54.7707 25.1273 58.9402 25.5901 62.9675C 26.3542 69.5183 27.8501 76.2258 29.7743 81.6562C 30.0594 82.4583 30.3614 83.2529 30.6786 84.0334C 29.9177 83.7026 29.1643 83.3605 28.4218 83.0075C 27.3305 82.4888 20.0106 78.5539 18.7115 76.9683ZM 63.33 89.9307C 56.7111 90.6376 49.1849 89.8328 41.8097 87.8899C 40.3353 86.2519 38.68 83.2855 37.171 79.0449C 35.3931 74.0699 34.0934 68.2224 33.3861 62.0717C 32.668 55.9223 32.5937 50.0027 33.3593 44.8078C 33.9172 40.9621 34.8759 38.0551 36.0568 36.1011L 37.9067 34.2583C 37.9734 35.2892 38.0715 36.3333 38.1972 37.3828C 38.8945 43.1632 40.546 49.8805 42.8703 56.239C 47.1319 67.8648 54.1623 79.9552 63.33 85.783L 63.33 89.9307ZM 63.33 8.93577L 53.1239 19.1019C 53.245 20.9373 53.8067 23.2226 54.8091 25.8461C 56.0712 29.1666 57.8223 32.5112 59.8148 35.7685C 60.9812 37.6799 62.1705 39.4551 63.33 41.0523L 63.33 8.93577ZM 46.1862 26.0115L 46.4774 25.7215C 46.6322 26.2336 46.7985 26.7437 46.974 27.2503C 47.1334 27.7123 47.3013 28.1714 47.4752 28.6266C 48.9106 32.3652 50.985 36.3484 53.1116 39.8326C 55.249 43.3246 57.6146 46.6239 59.6316 49.0818C 60.6585 50.3296 61.7023 51.4848 62.5698 52.3359C 62.8081 52.569 63.0625 52.8097 63.33 53.047L 63.33 75.759C 58.1411 70.6 53.5163 62.4917 50.2417 53.5584C 48.0538 47.6063 46.6162 41.7686 45.9893 36.4596C 45.4536 31.9741 45.5862 28.41 46.1862 26.0115Z"/>
<path id="path1_fill" d="M 23.3567 23.9867C 23.5325 23.9867 23.7083 24.0231 23.884 24.0961C 24.0598 24.1545 24.2283 24.2639 24.3894 24.4244L 27.3337 27.5103C 26.0447 29.1882 24.426 30.4575 22.4778 31.3184C 20.5442 32.1646 18.2518 32.5877 15.6004 32.5877C 13.1688 32.5877 10.9862 32.1792 9.05265 31.3621C 7.13372 30.5305 5.50043 29.3924 4.15279 27.948C 2.8198 26.4889 1.79442 24.7673 1.07665 22.783C 0.358883 20.7841 0 18.6174 0 16.2829C 0 13.9047 0.38818 11.7234 1.16454 9.73911C 1.9409 7.74022 3.0322 6.01855 4.43843 4.5741C 5.84467 3.12965 7.52922 2.00618 9.49209 1.20371C 11.455 0.401237 13.6156 0 15.974 0C 17.1751 0 18.303 0.109428 19.3577 0.328285C 20.427 0.532551 21.4231 0.824359 22.346 1.20371C 23.2688 1.56847 24.1184 2.01348 24.8948 2.53874C 25.6711 3.06399 26.3596 3.63302 26.9602 4.24582L 24.4553 7.59432C 24.2942 7.79859 24.1038 7.98826 23.884 8.16335C 23.6643 8.32384 23.3567 8.40409 22.9612 8.40409C 22.6975 8.40409 22.4485 8.34573 22.2141 8.229C 21.9798 8.11228 21.7307 7.97367 21.4671 7.81318C 21.2034 7.63809 20.9104 7.45571 20.5882 7.26604C 20.2806 7.06177 19.907 6.87939 19.4676 6.71889C 19.0428 6.54381 18.5374 6.3979 17.9515 6.28118C 17.3802 6.16446 16.7064 6.1061 15.93 6.1061C 14.6996 6.1061 13.5716 6.33225 12.5463 6.78455C 11.5355 7.23686 10.6566 7.90072 9.90957 8.77614C 9.17716 9.63698 8.60587 10.7021 8.19572 11.9714C 7.80022 13.2262 7.60246 14.6634 7.60246 16.2829C 7.60246 17.9171 7.82219 19.3688 8.26164 20.6382C 8.71573 21.9075 9.32364 22.9799 10.0854 23.8554C 10.8617 24.7162 11.7626 25.3728 12.788 25.8251C 13.8133 26.2774 14.912 26.5035 16.0838 26.5035C 16.7576 26.5035 17.3729 26.4743 17.9295 26.416C 18.4861 26.343 19.0062 26.2336 19.4896 26.0877C 19.9729 25.9272 20.427 25.7229 20.8518 25.4749C 21.2766 25.2123 21.7088 24.884 22.1482 24.49C 22.324 24.3441 22.5144 24.2274 22.7195 24.1399C 22.9246 24.0377 23.137 23.9867 23.3567 23.9867Z"/>
<path id="path2_fill" d="M 40.9906 15.3418C 42.0014 15.3418 42.8583 15.2178 43.5614 14.9698C 44.2792 14.7072 44.8651 14.3497 45.3192 13.8974C 45.7733 13.4451 46.1029 12.9198 46.3079 12.3216C 46.513 11.7088 46.6156 11.0523 46.6156 10.3519C 46.6156 8.95123 46.1541 7.85695 45.2313 7.06906C 44.3231 6.28118 42.9095 5.88724 40.9906 5.88724L 38.0024 5.88724L 38.0024 15.3418L 40.9906 15.3418ZM 56.7668 32.2376L 50.0433 32.2376C 48.7982 32.2376 47.9046 31.7707 47.3626 30.8369L 42.0453 21.5793C 41.7963 21.1853 41.518 20.9008 41.2103 20.7257C 40.9027 20.536 40.4633 20.4412 39.892 20.4412L 38.0024 20.4412L 38.0024 32.2376L 30.5757 32.2376L 30.5757 0.35017L 40.9906 0.35017C 43.305 0.35017 45.2752 0.590913 46.9012 1.0724C 48.5418 1.53929 49.8748 2.19586 50.9002 3.04211C 51.9402 3.88835 52.6946 4.88779 53.1634 6.04044C 53.6321 7.19308 53.8665 8.44786 53.8665 9.80477C 53.8665 10.8407 53.7273 11.8183 53.449 12.7374C 53.1707 13.6566 52.7605 14.5102 52.2185 15.2981C 51.6765 16.0714 51.0027 16.7644 50.1971 17.3772C 49.4061 17.99 48.4905 18.4934 47.4505 18.8873C 47.9339 19.1354 48.388 19.449 48.8128 19.8284C 49.2376 20.1932 49.6185 20.6309 49.9554 21.1415L 56.7668 32.2376Z"/>
<path id="path3_fill" d="M 73.0776 20.1129L 73.0776 32.2376L 65.6509 32.2376L 65.6509 20.1129L 54.0495 0.35017L 60.5972 0.35017C 61.2418 0.35017 61.7471 0.50337 62.1133 0.809769C 62.4942 1.10158 62.8091 1.48093 63.0582 1.94782L 67.5845 11.2273C 67.9653 11.9569 68.3096 12.6426 68.6172 13.2846C 68.9248 13.912 69.1958 14.5321 69.4302 15.1449C 69.6499 14.5175 69.8989 13.8901 70.1772 13.2627C 70.4702 12.6207 70.8071 11.9423 71.188 11.2273L 75.6703 1.94782C 75.7729 1.75815 75.8974 1.56847 76.0439 1.3788C 76.1904 1.18912 76.3588 1.02133 76.5492 0.875426C 76.7543 0.714931 76.9814 0.590913 77.2304 0.50337C 77.494 0.401237 77.7797 0.35017 78.0873 0.35017L 84.679 0.35017L 73.0776 20.1129Z"/>
<path id="path4_fill" d="M 98.4743 15.9984C 100.408 15.9984 101.799 15.5388 102.649 14.6196C 103.499 13.7004 103.923 12.4165 103.923 10.7677C 103.923 10.0382 103.814 9.37435 103.594 8.77614C 103.374 8.17794 103.037 7.66727 102.583 7.24415C 102.144 6.80644 101.58 6.47086 100.891 6.23741C 100.217 6.00396 99.4118 5.88724 98.4743 5.88724L 94.6071 5.88724L 94.6071 15.9984L 98.4743 15.9984ZM 98.4743 0.35017C 100.73 0.35017 102.664 0.620093 104.275 1.15994C 105.901 1.68519 107.234 2.41472 108.274 3.3485C 109.329 4.28229 110.105 5.38387 110.603 6.65324C 111.101 7.92261 111.35 9.29411 111.35 10.7677C 111.35 12.3581 111.094 13.8171 110.581 15.1449C 110.068 16.4726 109.285 17.6107 108.23 18.559C 107.175 19.5074 105.835 20.2515 104.209 20.7914C 102.598 21.3166 100.686 21.5793 98.4743 21.5793L 94.6071 21.5793L 94.6071 32.2376L 87.1805 32.2376L 87.1805 0.35017L 98.4743 0.35017Z"/>
<path id="path5_fill" d="M 138.123 6.21552L 129.115 6.21552L 129.115 32.2376L 121.688 32.2376L 121.688 6.21552L 112.679 6.21552L 112.679 0.35017L 138.123 0.35017L 138.123 6.21552Z"/>
<path id="path6_fill" d="M 172.588 16.2829C 172.588 18.5882 172.185 20.733 171.38 22.7173C 170.589 24.7016 169.468 26.4306 168.018 27.9042C 166.568 29.3632 164.817 30.5086 162.766 31.3403C 160.73 32.1719 158.467 32.5877 155.977 32.5877C 153.487 32.5877 151.216 32.1719 149.165 31.3403C 147.115 30.5086 145.357 29.3632 143.892 27.9042C 142.442 26.4306 141.314 24.7016 140.508 22.7173C 139.717 20.733 139.322 18.5882 139.322 16.2829C 139.322 13.9776 139.717 11.8328 140.508 9.84854C 141.314 7.86424 142.442 6.14257 143.892 4.68353C 145.357 3.22449 147.115 2.07914 149.165 1.24748C 151.216 0.415827 153.487 0 155.977 0C 158.467 0 160.73 0.423123 162.766 1.26937C 164.817 2.10102 166.568 3.24637 168.018 4.70541C 169.468 6.16446 170.589 7.88613 171.38 9.87043C 172.185 11.8547 172.588 13.9922 172.588 16.2829ZM 164.986 16.2829C 164.986 14.7072 164.78 13.2919 164.37 12.0371C 163.96 10.7677 163.367 9.69534 162.591 8.81992C 161.829 7.94449 160.891 7.27333 159.778 6.80644C 158.665 6.33954 157.398 6.1061 155.977 6.1061C 154.541 6.1061 153.26 6.33954 152.132 6.80644C 151.018 7.27333 150.074 7.94449 149.297 8.81992C 148.536 9.69534 147.95 10.7677 147.539 12.0371C 147.129 13.2919 146.924 14.7072 146.924 16.2829C 146.924 17.8733 147.129 19.3031 147.539 20.5725C 147.95 21.8273 148.536 22.8924 149.297 23.7678C 150.074 24.6432 151.018 25.3144 152.132 25.7813C 153.26 26.2336 154.541 26.4598 155.977 26.4598C 157.398 26.4598 158.665 26.2336 159.778 25.7813C 160.891 25.3144 161.829 24.6432 162.591 23.7678C 163.367 22.8924 163.96 21.8273 164.37 20.5725C 164.78 19.3031 164.986 17.8733 164.986 16.2829Z"/>
<path id="path7_fill" d="M 276.343 6.04044L 276.343 13.4816L 286.406 13.4816L 286.406 18.953L 276.343 18.953L 276.343 26.5473L 289.482 26.5473L 289.482 32.2376L 268.872 32.2376L 268.872 0.35017L 289.482 0.35017L 289.482 6.04044L 276.343 6.04044Z"/>
<path id="path8_fill" d="M 324.099 0.35017L 311.267 32.2376L 304.544 32.2376L 291.712 0.35017L 297.688 0.35017C 298.333 0.35017 298.853 0.50337 299.249 0.809769C 299.644 1.10158 299.944 1.48093 300.149 1.94782L 306.346 19.0186C 306.639 19.7627 306.924 20.5798 307.203 21.4698C 307.481 22.3452 307.745 23.2644 307.994 24.2274C 308.199 23.2644 308.426 22.3452 308.675 21.4698C 308.938 20.5798 309.217 19.7627 309.51 19.0186L 315.662 1.94782C 315.823 1.53929 316.109 1.17453 316.519 0.85354C 316.944 0.51796 317.464 0.35017 318.079 0.35017L 324.099 0.35017Z"/>
<path id="path9_fill" d="M 335.412 6.04044L 335.412 13.4816L 345.476 13.4816L 345.476 18.953L 335.412 18.953L 335.412 26.5473L 348.552 26.5473L 348.552 32.2376L 327.942 32.2376L 327.942 0.35017L 348.552 0.35017L 348.552 6.04044L 335.412 6.04044Z"/>
<path id="path10_fill" d="M 382.4 0.35017L 382.4 32.2376L 378.533 32.2376C 377.962 32.2376 377.478 32.15 377.083 31.9749C 376.702 31.7853 376.321 31.4643 375.94 31.012L 360.845 11.9933C 360.904 12.5624 360.94 13.1168 360.955 13.6566C 360.984 14.1819 360.999 14.678 360.999 15.1449L 360.999 32.2376L 354.451 32.2376L 354.451 0.35017L 358.362 0.35017C 358.685 0.35017 358.956 0.364761 359.175 0.393942C 359.395 0.423123 359.593 0.481484 359.769 0.569027C 359.944 0.641979 360.113 0.751407 360.274 0.897312C 360.435 1.04322 360.618 1.24019 360.823 1.48822L 376.05 20.6382C 375.977 20.0254 375.926 19.4345 375.896 18.8654C 375.867 18.2818 375.852 17.7347 375.852 17.224L 375.852 0.35017L 382.4 0.35017Z"/>
<path id="path11_fill" d="M 412.935 6.21552L 403.926 6.21552L 403.926 32.2376L 396.5 32.2376L 396.5 6.21552L 387.491 6.21552L 387.491 0.35017L 412.935 0.35017L 412.935 6.21552Z"/>
<path id="path12_fill" d="M 435.715 6.82832C 435.495 7.17849 435.261 7.44112 435.012 7.61621C 434.777 7.79129 434.47 7.87883 434.089 7.87883C 433.752 7.87883 433.386 7.7767 432.99 7.57243C 432.609 7.35358 432.17 7.11284 431.672 6.85021C 431.189 6.58758 430.632 6.35413 430.002 6.14987C 429.372 5.93101 428.654 5.82158 427.849 5.82158C 426.457 5.82158 425.417 6.12069 424.729 6.71889C 424.055 7.30251 423.718 8.09769 423.718 9.10443C 423.718 9.74641 423.923 10.279 424.333 10.7021C 424.743 11.1252 425.278 11.49 425.937 11.7964C 426.611 12.1028 427.373 12.3873 428.222 12.6499C 429.087 12.8979 429.965 13.1825 430.859 13.5034C 431.753 13.8098 432.624 14.1746 433.474 14.5977C 434.338 15.0209 435.1 15.5607 435.759 16.2173C 436.433 16.8738 436.975 17.6763 437.385 18.6247C 437.795 19.5585 438 20.6892 438 22.017C 438 23.4906 437.744 24.8694 437.231 26.1534C 436.718 27.4373 435.971 28.5608 434.99 29.5237C 434.023 30.4721 432.822 31.2235 431.386 31.778C 429.965 32.3178 428.347 32.5877 426.53 32.5877C 425.534 32.5877 424.516 32.4856 423.476 32.2813C 422.451 32.0771 421.455 31.7926 420.488 31.4278C 419.521 31.0484 418.613 30.6034 417.763 30.0928C 416.914 29.5821 416.174 29.0131 415.544 28.3857L 417.741 24.9278C 417.917 24.6797 418.144 24.4755 418.423 24.315C 418.716 24.1399 419.03 24.0523 419.367 24.0523C 419.807 24.0523 420.246 24.1909 420.686 24.4682C 421.14 24.7454 421.645 25.0518 422.202 25.3874C 422.773 25.7229 423.425 26.0293 424.157 26.3065C 424.89 26.5838 425.754 26.7224 426.75 26.7224C 428.098 26.7224 429.145 26.4306 429.892 25.847C 430.639 25.2487 431.013 24.3077 431.013 23.0237C 431.013 22.2796 430.808 21.6741 430.398 21.2072C 429.987 20.7403 429.445 20.3537 428.772 20.0473C 428.112 19.7409 427.358 19.4709 426.508 19.2375C 425.659 19.004 424.787 18.7487 423.894 18.4715C 423 18.1797 422.129 17.8295 421.279 17.421C 420.429 16.9979 419.668 16.4507 418.994 15.7796C 418.335 15.0938 417.8 14.2476 417.39 13.2408C 416.98 12.2195 416.775 10.9647 416.775 9.47649C 416.775 8.28007 417.016 7.11284 417.5 5.97478C 417.983 4.83673 418.694 3.82269 419.631 2.93268C 420.569 2.04266 421.718 1.33502 423.081 0.809769C 424.443 0.269923 426.003 0 427.761 0C 428.742 0 429.694 0.0802474 430.617 0.240742C 431.555 0.386646 432.441 0.612798 433.276 0.919197C 434.111 1.21101 434.887 1.56847 435.605 1.99159C 436.337 2.40013 436.989 2.86702 437.561 3.39228L 435.715 6.82832Z"/>
</defs>
</svg>
